<svg xmlns="http://www.w3.org/2000/svg" viewBox="0 0 400 400">
  <defs>
    <radialGradient id="bodyGradient" cx="50%" cy="30%" r="60%">
      <stop offset="0%" style="stop-color:#b366e8"/>
      <stop offset="100%" style="stop-color:#4a0080"/>
    </radialGradient>
    <linearGradient id="tentGrad" x1="0%" y1="0%" x2="100%" y2="100%">
      <stop offset="0%" style="stop-color:#9b4dca"/>
      <stop offset="50%" style="stop-color:#6a1bb2"/>
      <stop offset="100%" style="stop-color:#3d0066"/>
    </linearGradient>
    <filter id="glow">
      <feGaussianBlur stdDeviation="2" result="coloredBlur"/>
      <feMerge>
        <feMergeNode in="coloredBlur"/>
        <feMergeNode in="SourceGraphic"/>
      </feMerge>
    </filter>
  </defs>
  
  <!-- Tentacle 1 - Long encerclant -->
  <path d="M150,200 C100,180 50,220 30,280 C10,340 50,390 120,380 C180,370 220,340 250,300 C270,270 300,250 340,260 C380,270 395,310 380,350 C365,390 320,400 280,390" fill="none" stroke="url(#tentGrad)" stroke-width="22" stroke-linecap="round" filter="url(#glow)"/>
  <path d="M150,200 C100,180 50,220 30,280 C10,340 50,390 120,380 C180,370 220,340 250,300 C270,270 300,250 340,260 C380,270 395,310 380,350 C365,390 320,400 280,390" fill="none" stroke="#2d0a4e" stroke-width="8" stroke-linecap="round" stroke-dasharray="2,15"/>
  
  <!-- Tentacle 2 - Vers le haut -->
  <path d="M250,200 C300,180 350,150 370,100 C385,50 350,10 290,20 C230,30 180,60 150,100 C120,140 80,130 50,100 C20,70 10,30 30,10" fill="none" stroke="url(#tentGrad)" stroke-width="20" stroke-linecap="round" filter="url(#glow)"/>
  <path d="M250,200 C300,180 350,150 370,100 C385,50 350,10 290,20 C230,30 180,60 150,100 C120,140 80,130 50,100 C20,70 10,30 30,10" fill="none" stroke="#2d0a4e" stroke-width="6" stroke-linecap="round" stroke-dasharray="2,12"/>
  
  <!-- Tentacle 3 - En bas encerclant -->
  <path d="M180,220 C150,260 100,300 80,350 C60,400 100,420 160,400 C220,380 280,400 340,420 C400,440 420,400 400,350" fill="none" stroke="url(#tentGrad)" stroke-width="18" stroke-linecap="round" filter="url(#glow)"/>
  <path d="M180,220 C150,260 100,300 80,350 C60,400 100,420 160,400 C220,380 280,400 340,420 C400,440 420,400 400,350" fill="none" stroke="#2d0a4e" stroke-width="5" stroke-linecap="round" stroke-dasharray="2,10"/>
  
  <!-- Tentacle 4 - Droite curl -->
  <path d="M260,190 C310,170 360,200 380,250 C400,300 390,360 350,380 C310,400 260,380 240,340" fill="none" stroke="url(#tentGrad)" stroke-width="16" stroke-linecap="round" filter="url(#glow)"/>
  <path d="M260,190 C310,170 360,200 380,250 C400,300 390,360 350,380 C310,400 260,380 240,340" fill="none" stroke="#2d0a4e" stroke-width="5" stroke-linecap="round" stroke-dasharray="2,10"/>
  
  <!-- Tentacle 5 - Gauche curl -->
  <path d="M140,190 C90,170 40,200 20,250 C0,300 10,360 50,380 C90,400 140,380 160,340" fill="none" stroke="url(#tentGrad)" stroke-width="16" stroke-linecap="round" filter="url(#glow)"/>
  <path d="M140,190 C90,170 40,200 20,250 C0,300 10,360 50,380 C90,400 140,380 160,340" fill="none" stroke="#2d0a4e" stroke-width="5" stroke-linecap="round" stroke-dasharray="2,10"/>
  
  <!-- Tentacle 6 - Haut droite -->
  <path d="M200,150 C200,100 240,60 280,40 C320,20 370,40 380,80 C390,120 360,150 320,160" fill="none" stroke="url(#tentGrad)" stroke-width="14" stroke-linecap="round" filter="url(#glow)"/>
  
  <!-- Tentacle 7 - Haut gauche -->
  <path d="M180,150 C160,100 120,60 80,40 C40,20 10,50 10,90 C10,130 40,160 80,165" fill="none" stroke="url(#tentGrad)" stroke-width="14" stroke-linecap="round" filter="url(#glow)"/>
  
  <!-- Tentacle 8 - Petit accent -->
  <path d="M220,210 C250,230 280,280 260,320 C240,360 200,370 170,350" fill="none" stroke="url(#tentGrad)" stroke-width="12" stroke-linecap="round" filter="url(#glow)"/>
  
  <!-- Corps -->
  <ellipse cx="200" cy="180" rx="70" ry="60" fill="url(#bodyGradient)" filter="url(#glow)"/>
  <ellipse cx="200" cy="145" rx="45" ry="40" fill="url(#bodyGradient)"/>
  
  <!-- Yeux -->
  <ellipse cx="175" cy="175" rx="18" ry="22" fill="#0a0015"/>
  <ellipse cx="225" cy="175" rx="18" ry="22" fill="#0a0015"/>
  <ellipse cx="175" cy="175" rx="18" ry="22" fill="none" stroke="#8a2be2" stroke-width="2" opacity="0.5"/>
  <ellipse cx="225" cy="175" rx="18" ry="22" fill="none" stroke="#8a2be2" stroke-width="2" opacity="0.5"/>
  <ellipse cx="178" cy="172" rx="7" ry="9" fill="#bf5fff"/>
  <ellipse cx="228" cy="172" rx="7" ry="9" fill="#bf5fff"/>
  <circle cx="172" cy="168" r="4" fill="#fff" opacity="0.9"/>
  <circle cx="222" cy="168" r="4" fill="#fff" opacity="0.9"/>
</svg>
